<svg width="62" height="57" viewBox="0 0 62 57" fill="none" xmlns="http://www.w3.org/2000/svg">
<g clip-path="url(#clip0_709_90)">
<path d="M30.9998 28.519C36.7046 28.519 41.3331 23.9143 41.3331 18.2377C41.3331 13.8627 35.1869 5.03618 32.3775 1.21899C31.6886 0.289307 30.3109 0.289307 29.622 1.21899C26.8126 5.03618 20.6664 13.8627 20.6664 18.2377C20.6664 23.9143 25.2949 28.519 30.9998 28.519ZM60.848 36.4049C59.5779 35.2346 57.5973 35.3112 56.2626 36.4049L46.3168 44.4877C45.1004 45.4831 43.5827 46.019 42.0112 46.019H29.2775C28.3303 46.019 27.5553 45.2315 27.5553 44.269C27.5553 43.3065 28.3303 42.519 29.2775 42.519H37.7057C39.4171 42.519 41.0102 41.3268 41.29 39.6096C41.6452 37.4221 39.9876 35.519 37.8886 35.519H20.6664C17.7602 35.519 14.9508 36.5362 12.6904 38.3956L7.68517 42.519H1.72198C0.774756 42.519 -0.000244141 43.3065 -0.000244141 44.269V54.769C-0.000244141 55.7315 0.774756 56.519 1.72198 56.519H40.1275C41.6883 56.519 43.206 55.9831 44.4331 54.9877L60.7081 41.7534C62.3442 40.4299 62.4734 37.8924 60.848 36.4049Z" fill="#005AE0"/>
</g>
<defs>
<clipPath id="clip0_709_90">
<rect width="62" height="56" fill="white" transform="translate(-0.000244141 0.519287)"/>
</clipPath>
</defs>
</svg>
