<svg width="66" height="67" viewBox="0 0 66 67" fill="none" xmlns="http://www.w3.org/2000/svg">
<path d="M52.2499 6.01929H24.7499C21.7167 6.01929 19.2499 8.48604 19.2499 11.5193V26.8808L6.30565 39.825C5.92118 40.2096 5.65936 40.6996 5.5533 41.233C5.44724 41.7663 5.5017 42.3192 5.70979 42.8216C5.91788 43.324 6.27026 43.7535 6.72239 44.0556C7.17452 44.3578 7.70609 44.5192 8.2499 44.5193V58.2693C8.2499 58.9986 8.53963 59.6981 9.05536 60.2138C9.57108 60.7296 10.2706 61.0193 10.9999 61.0193H54.9999C55.7292 61.0193 56.4287 60.7296 56.9444 60.2138C57.4602 59.6981 57.7499 58.9986 57.7499 58.2693V11.5193C57.7499 8.48604 55.2831 6.01929 52.2499 6.01929ZM30.2499 55.5193H13.7499V40.1578L21.9999 31.9078L30.2499 40.1578V55.5193ZM52.2499 55.5193H35.7499V44.5193C36.2943 44.5205 36.8268 44.3599 37.2798 44.058C37.7328 43.756 38.0858 43.3263 38.2941 42.8233C38.5025 42.3203 38.5566 41.7668 38.4498 41.233C38.343 40.6992 38.08 40.2091 37.6942 39.825L24.7499 26.8808V11.5193H52.2499V55.5193Z" fill="#005AE0"/>
<path d="M30.2499 17.0193H35.7499V22.5193H30.2499V17.0193ZM41.2499 17.0193H46.7499V22.5193H41.2499V17.0193ZM41.2499 28.1045H46.7499V33.5193H41.2499V28.1045ZM41.2499 39.0193H46.7499V44.5193H41.2499V39.0193ZM19.2499 41.7693H24.7499V47.2693H19.2499V41.7693Z" fill="#005AE0"/>
</svg>
