<svg width="50" height="41" viewBox="0 0 50 41" fill="none" xmlns="http://www.w3.org/2000/svg">
<g clip-path="url(#clip0_709_88)">
<path d="M24.9922 25.5193C29.4773 25.5193 33.0469 21.8818 33.0469 17.3943C33.0469 12.9068 29.4109 9.26929 24.9922 9.26929C20.507 9.26929 16.9375 12.9068 16.9375 17.3943C16.8672 21.8787 20.5078 25.5193 24.9922 25.5193ZM28.8984 28.0193H21.1016C14.9688 28.0193 10 32.6833 10 38.4333C10 39.5896 10.9922 40.5193 12.2188 40.5193H37.7812C39.0078 40.5193 40 39.5896 40 38.4333C40 32.6833 35.0312 28.0193 28.8984 28.0193ZM40 13.0193C43.4516 13.0193 46.25 10.2208 46.25 6.76929C46.25 3.31772 43.4531 0.519287 40 0.519287C36.5484 0.519287 33.75 3.31772 33.75 6.76929C33.75 10.2208 36.5469 13.0193 40 13.0193ZM14.3672 17.3943C14.3672 16.9686 14.4439 16.5638 14.4929 16.1513C13.6406 15.6833 12.7031 15.5193 11.7109 15.5193H6.88125C3.08125 15.5193 0 18.7849 0 22.8083C0 23.613 0.616172 24.2693 1.37656 24.2693H16.9625C15.3672 22.4099 14.3672 20.0271 14.3672 17.3943ZM10 13.0193C13.4516 13.0193 16.25 10.2208 16.25 6.76929C16.25 3.31772 13.4531 0.519287 10 0.519287C6.54844 0.519287 3.75 3.31772 3.75 6.76929C3.75 10.2208 6.54844 13.0193 10 13.0193ZM43.1172 15.5193H38.2859C37.2859 15.5193 36.3422 15.7566 35.4844 16.163C35.5312 16.574 35.6094 16.9724 35.6094 17.3943C35.6094 20.0279 34.6109 22.4107 33.0188 24.2693H48.6203C49.3828 24.2693 50 23.613 50 22.8083C50 18.7849 46.9219 15.5193 43.1172 15.5193Z" fill="#005AE0"/>
</g>
<defs>
<clipPath id="clip0_709_88">
<rect width="50" height="40" fill="white" transform="translate(0 0.519287)"/>
</clipPath>
</defs>
</svg>
