<svg width="46" height="46" viewBox="0 0 46 46" fill="none" xmlns="http://www.w3.org/2000/svg">
<path d="M21.1555 14C21.1555 15.7902 20.4444 17.5071 19.1785 18.773C17.9126 20.0388 16.1957 20.75 14.4055 20.75C12.6153 20.75 10.8984 20.0388 9.63255 18.773C8.36668 17.5071 7.65552 15.7902 7.65552 14C7.65552 12.2098 8.36668 10.4929 9.63255 9.22703C10.8984 7.96116 12.6153 7.25 14.4055 7.25C16.1957 7.25 17.9126 7.96116 19.1785 9.22703C20.4444 10.4929 21.1555 12.2098 21.1555 14ZM39.1555 14C39.1555 14.8864 38.9809 15.7642 38.6417 16.5831C38.3025 17.4021 37.8053 18.1462 37.1785 18.773C36.5517 19.3998 35.8076 19.897 34.9886 20.2362C34.1697 20.5754 33.2919 20.75 32.4055 20.75C31.5191 20.75 30.6414 20.5754 29.8224 20.2362C29.0035 19.897 28.2593 19.3998 27.6325 18.773C27.0058 18.1462 26.5085 17.4021 26.1693 16.5831C25.8301 15.7642 25.6555 14.8864 25.6555 14C25.6555 12.2098 26.3667 10.4929 27.6325 9.22703C28.8984 7.96116 30.6153 7.25 32.4055 7.25C34.1957 7.25 35.9126 7.96116 37.1785 9.22703C38.4444 10.4929 39.1555 12.2098 39.1555 14ZM29.998 38.75C30.1015 38.0142 30.1555 37.265 30.1555 36.5C30.1607 32.9649 28.9714 29.5318 26.7805 26.7575C28.4907 25.7701 30.4307 25.2503 32.4054 25.2503C34.3802 25.2503 36.3202 25.7701 38.0304 26.7574C39.7406 27.7448 41.1608 29.1649 42.1482 30.8751C43.1356 32.5853 43.6555 34.5252 43.6555 36.5V38.75H29.998ZM14.4055 25.25C17.3892 25.25 20.2507 26.4353 22.3605 28.545C24.4703 30.6548 25.6555 33.5163 25.6555 36.5V38.75H3.15552V36.5C3.15552 33.5163 4.34078 30.6548 6.45057 28.545C8.56035 26.4353 11.4218 25.25 14.4055 25.25Z" fill="#005AE0"/>
</svg>
